HIERARCHY
ROOT Hips
{
	OFFSET 0.000000 71.427986 0.000000
	CHANNELS 6 Xposition Yposition Zposition Xrotation Yrotation Zrotation
	JOINT Pelvis
	{
		OFFSET 0.000000 0.000000 0.000000
		CHANNELS 3 Xrotation Yrotation Zrotation
		JOINT LeftUpLeg
		{
			OFFSET 6.797100 -2.508499 -1.318700
			CHANNELS 3 Xrotation Yrotation Zrotation
			JOINT LeftLeg
			{
				OFFSET 0.069008 -29.241863 0.690200
				CHANNELS 3 Xrotation Yrotation Zrotation
				JOINT LeftFoot
				{
					OFFSET -0.069008 -29.568123 -0.266800
					CHANNELS 3 Xrotation Yrotation Zrotation
					JOINT LeftToeBase
					{
						OFFSET 3.145500 -8.631000 16.059900
						CHANNELS 3 Xrotation Yrotation Zrotation
						End Site
						{
							OFFSET 0.000000 18.501587 0.000000
						}
					}
				}
			}
			JOINT Left_ShortSleeve
			{
				OFFSET 0.265923 -10.480953 1.153800
				CHANNELS 3 Xrotation Yrotation Zrotation
				End Site
				{
					OFFSET 1.725763 19.823879 0.000000
				}
			}
		}
		JOINT RightUpLeg
		{
			OFFSET -6.797100 -2.508499 -1.318700
			CHANNELS 3 Xrotation Yrotation Zrotation
			JOINT RightLeg
			{
				OFFSET -0.082453 -29.241932 0.688000
				CHANNELS 3 Xrotation Yrotation Zrotation
				JOINT RightFoot
				{
					OFFSET 0.082453 -29.568058 -0.264600
					CHANNELS 3 Xrotation Yrotation Zrotation
					JOINT RightToeBase
					{
						OFFSET -3.115300 -8.682800 16.113400
						CHANNELS 3 Xrotation Yrotation Zrotation
						End Site
						{
							OFFSET 0.000000 18.567114 0.000000
						}
					}
				}
			}
			JOINT Right_ShortSleeve
			{
				OFFSET -0.265923 -10.480953 1.153800
				CHANNELS 3 Xrotation Yrotation Zrotation
				End Site
				{
					OFFSET -1.725766 19.823910 0.000000
				}
			}
		}
	}
	JOINT Spine
	{
		OFFSET 0.000000 13.368103 0.470500
		CHANNELS 3 Xrotation Yrotation Zrotation
		JOINT Spine1
		{
			OFFSET 0.147000 13.837402 0.538800
			CHANNELS 3 Xrotation Yrotation Zrotation
			JOINT Spine2
			{
				OFFSET 0.168000 16.242897 -1.435500
				CHANNELS 3 Xrotation Yrotation Zrotation
				JOINT Neck
				{
					OFFSET 0.217200 18.631500 -1.679100
					CHANNELS 3 Xrotation Yrotation Zrotation
					JOINT Head
					{
						OFFSET 0.000000 6.599396 1.385900
						CHANNELS 3 Xrotation Yrotation Zrotation
						JOINT Hat
						{
							OFFSET -0.532200 27.220596 -10.096100
							CHANNELS 3 Xrotation Yrotation Zrotation
							End Site
							{
								OFFSET 0.000000 22.029861 0.000000
							}
						}
						JOINT HairD
						{
							OFFSET -10.777400 17.437393 -1.325900
							CHANNELS 3 Xrotation Yrotation Zrotation
							JOINT HairD1
							{
								OFFSET -3.290299 -11.051193 1.062200
								CHANNELS 3 Xrotation Yrotation Zrotation
								End Site
								{
									OFFSET 0.000000 11.579437 0.000000
								}
							}
						}
						JOINT HairB
						{
							OFFSET -10.777400 17.437393 1.467900
							CHANNELS 3 Xrotation Yrotation Zrotation
							JOINT HairB1
							{
								OFFSET -1.561200 -12.956299 3.590200
								CHANNELS 3 Xrotation Yrotation Zrotation
								End Site
								{
									OFFSET 0.000000 13.534866 0.000000
								}
							}
						}
						JOINT HairA
						{
							OFFSET 9.713100 17.437393 1.467900
							CHANNELS 3 Xrotation Yrotation Zrotation
							JOINT HairA1
							{
								OFFSET 1.561200 -12.956299 3.590200
								CHANNELS 3 Xrotation Yrotation Zrotation
								End Site
								{
									OFFSET 0.000000 13.534866 0.000000
								}
							}
						}
						JOINT HairC
						{
							OFFSET 9.713100 17.437393 -1.325900
							CHANNELS 3 Xrotation Yrotation Zrotation
							JOINT HairC1
							{
								OFFSET 3.290300 -11.051193 1.062200
								CHANNELS 3 Xrotation Yrotation Zrotation
								End Site
								{
									OFFSET 0.000000 11.579437 0.000000
								}
							}
						}
					}
				}
				JOINT LeftShoulder
				{
					OFFSET 5.101800 15.108002 -2.763700
					CHANNELS 3 Xrotation Yrotation Zrotation
					JOINT LeftArm
					{
						OFFSET 9.825497 2.506317 -1.597400
						CHANNELS 3 Xrotation Yrotation Zrotation
						JOINT LeftForeArm
						{
							OFFSET 21.966244 0.000000 0.000000
							CHANNELS 3 Xrotation Yrotation Zrotation
							JOINT LeftHand
							{
								OFFSET 33.879036 0.000000 0.000000
								CHANNELS 3 Xrotation Yrotation Zrotation
								JOINT LeftHandThumb1
								{
									OFFSET 6.715286 -2.359680 3.363841
									CHANNELS 3 Xrotation Yrotation Zrotation
									JOINT LeftHandThumb2
									{
										OFFSET 2.507072 -1.447464 1.447461
										CHANNELS 3 Xrotation Yrotation Zrotation
										JOINT LeftHandThumb3
										{
											OFFSET 2.898338 -1.673355 1.673357
											CHANNELS 3 Xrotation Yrotation Zrotation
											End Site
											{
												OFFSET -0.295959 3.727692 -0.131651
											}
										}
									}
								}
								JOINT LeftHandIndex1
								{
									OFFSET 14.190811 -0.254547 3.840278
									CHANNELS 3 Xrotation Yrotation Zrotation
									JOINT LeftHandIndex2
									{
										OFFSET 3.551727 0.000000 -0.000000
										CHANNELS 3 Xrotation Yrotation Zrotation
										JOINT LeftHandIndex3
										{
											OFFSET 2.894196 0.000000 0.000000
											CHANNELS 3 Xrotation Yrotation Zrotation
											End Site
											{
												OFFSET -1.000603 2.690872 0.366626
											}
										}
									}
								}
								JOINT LeftHandMiddle1
								{
									OFFSET 13.776489 0.000000 0.000000
									CHANNELS 3 Xrotation Yrotation Zrotation
									JOINT LeftHandMiddle2
									{
										OFFSET 3.438232 0.000000 0.000000
										CHANNELS 3 Xrotation Yrotation Zrotation
										JOINT LeftHandMiddle3
										{
											OFFSET 3.691551 0.000000 0.000000
											CHANNELS 3 Xrotation Yrotation Zrotation
											End Site
											{
												OFFSET -1.082298 3.499527 0.457670
											}
										}
									}
								}
								JOINT LeftHandRing1
								{
									OFFSET 13.966164 -0.268127 -3.067488
									CHANNELS 3 Xrotation Yrotation Zrotation
									JOINT LeftHandRing2
									{
										OFFSET 3.162567 0.000000 0.000000
										CHANNELS 3 Xrotation Yrotation Zrotation
										JOINT LeftHandRing3
										{
											OFFSET 3.324348 0.000000 0.000000
											CHANNELS 3 Xrotation Yrotation Zrotation
											End Site
											{
												OFFSET -0.861900 3.184998 0.405154
											}
										}
									}
								}
								JOINT LeftHandPinky1
								{
									OFFSET 13.131393 -0.168503 -5.746925
									CHANNELS 3 Xrotation Yrotation Zrotation
									JOINT LeftHandPinky2
									{
										OFFSET 2.849182 0.000000 0.000000
										CHANNELS 3 Xrotation Yrotation Zrotation
										JOINT LeftHandPinky3
										{
											OFFSET 2.805038 0.000000 0.000000
											CHANNELS 3 Xrotation Yrotation Zrotation
											End Site
											{
												OFFSET -0.882500 2.642609 0.325652
											}
										}
									}
								}
							}
							JOINT Left_Sleeve
							{
								OFFSET 6.592125 -0.646545 0.805568
								CHANNELS 3 Xrotation Yrotation Zrotation
								End Site
								{
									OFFSET -0.000179 20.275787 -0.000000
								}
							}
						}
					}
				}
				JOINT RightShoulder
				{
					OFFSET -5.731700 15.108002 -2.763700
					CHANNELS 3 Xrotation Yrotation Zrotation
					JOINT RightArm
					{
						OFFSET -9.825497 2.506317 -1.597400
						CHANNELS 3 Xrotation Yrotation Zrotation
						JOINT RightForeArm
						{
							OFFSET -21.966242 0.000000 0.000000
							CHANNELS 3 Xrotation Yrotation Zrotation
							JOINT RightHand
							{
								OFFSET -33.879032 0.000000 0.000000
								CHANNELS 3 Xrotation Yrotation Zrotation
								JOINT RightHandThumb1
								{
									OFFSET -6.715286 -2.359680 3.363841
									CHANNELS 3 Xrotation Yrotation Zrotation
									JOINT RightHandThumb2
									{
										OFFSET -2.507072 -1.447464 1.447461
										CHANNELS 3 Xrotation Yrotation Zrotation
										JOINT RightHandThumb3
										{
											OFFSET -2.898338 -1.673355 1.673357
											CHANNELS 3 Xrotation Yrotation Zrotation
											End Site
											{
												OFFSET 0.295959 3.727692 -0.131651
											}
										}
									}
								}
								JOINT RightHandIndex1
								{
									OFFSET -14.190811 -0.254547 3.840278
									CHANNELS 3 Xrotation Yrotation Zrotation
									JOINT RightHandIndex2
									{
										OFFSET -3.551727 0.000000 -0.000000
										CHANNELS 3 Xrotation Yrotation Zrotation
										JOINT RightHandIndex3
										{
											OFFSET -2.894196 0.000000 0.000000
											CHANNELS 3 Xrotation Yrotation Zrotation
											End Site
											{
												OFFSET 1.000603 2.690872 0.366626
											}
										}
									}
								}
								JOINT RightHandMiddle1
								{
									OFFSET -13.776489 0.000000 0.000000
									CHANNELS 3 Xrotation Yrotation Zrotation
									JOINT RightHandMiddle2
									{
										OFFSET -3.438232 0.000000 0.000000
										CHANNELS 3 Xrotation Yrotation Zrotation
										JOINT RightHandMiddle3
										{
											OFFSET -3.691551 0.000000 0.000000
											CHANNELS 3 Xrotation Yrotation Zrotation
											End Site
											{
												OFFSET 1.082298 3.499527 0.457670
											}
										}
									}
								}
								JOINT RightHandRing1
								{
									OFFSET -13.966164 -0.268127 -3.067488
									CHANNELS 3 Xrotation Yrotation Zrotation
									JOINT RightHandRing2
									{
										OFFSET -3.162567 0.000000 0.000000
										CHANNELS 3 Xrotation Yrotation Zrotation
										JOINT RightHandRing3
										{
											OFFSET -3.324348 0.000000 0.000000
											CHANNELS 3 Xrotation Yrotation Zrotation
											End Site
											{
												OFFSET 0.861900 3.184998 0.405154
											}
										}
									}
								}
								JOINT RightHandPinky1
								{
									OFFSET -13.131393 -0.168503 -5.746925
									CHANNELS 3 Xrotation Yrotation Zrotation
									JOINT RightHandPinky2
									{
										OFFSET -2.849182 0.000000 0.000000
										CHANNELS 3 Xrotation Yrotation Zrotation
										JOINT RightHandPinky3
										{
											OFFSET -2.805038 0.000000 0.000000
											CHANNELS 3 Xrotation Yrotation Zrotation
											End Site
											{
												OFFSET 0.882500 2.642609 0.325652
											}
										}
									}
								}
							}
							JOINT Right_Sleeve
							{
								OFFSET -6.592125 -0.646545 0.805568
								CHANNELS 3 Xrotation Yrotation Zrotation
								End Site
								{
									OFFSET 0.000179 20.275787 -0.000000
								}
							}
						}
					}
				}
				JOINT Bind_Right_JacketString
				{
					OFFSET -3.534800 11.969597 7.200700
					CHANNELS 3 Xrotation Yrotation Zrotation
					JOINT Bind_Right_JacketString1
					{
						OFFSET -0.319900 -6.102600 2.794100
						CHANNELS 3 Xrotation Yrotation Zrotation
						End Site
						{
							OFFSET 0.000000 6.719452 0.000000
						}
					}
				}
				JOINT Bind_Left_JacketString
				{
					OFFSET 2.904800 11.969597 7.200700
					CHANNELS 3 Xrotation Yrotation Zrotation
					JOINT Bind_Left_JacketString1
					{
						OFFSET 0.364800 -5.904503 3.186800
						CHANNELS 3 Xrotation Yrotation Zrotation
						End Site
						{
							OFFSET 0.000000 6.719513 0.000000
						}
					}
				}
				JOINT HairE
				{
					OFFSET 5.915200 17.612701 -11.592200
					CHANNELS 3 Xrotation Yrotation Zrotation
					JOINT HairE1
					{
						OFFSET 0.289200 -7.171898 -1.284500
						CHANNELS 3 Xrotation Yrotation Zrotation
						End Site
						{
							OFFSET 0.000000 7.291756 0.000000
						}
					}
				}
				JOINT HairF
				{
					OFFSET -0.864800 17.612701 -11.592200
					CHANNELS 3 Xrotation Yrotation Zrotation
					JOINT HairF1
					{
						OFFSET 0.000000 -14.087097 -2.127501
						CHANNELS 3 Xrotation Yrotation Zrotation
						End Site
						{
							OFFSET 0.000000 14.246841 0.000000
						}
					}
				}
				JOINT HairG
				{
					OFFSET -8.087700 17.612701 -11.592200
					CHANNELS 3 Xrotation Yrotation Zrotation
					JOINT HairG1
					{
						OFFSET -0.293600 -6.081398 -0.910100
						CHANNELS 3 Xrotation Yrotation Zrotation
						End Site
						{
							OFFSET 0.000000 6.156120 0.000000
						}
					}
				}
			}
		}
	}
	JOINT Pouch
	{
		OFFSET 0.000000 4.394501 10.847300
		CHANNELS 3 Xrotation Yrotation Zrotation
		End Site
		{
			OFFSET 0.000000 21.880577 0.000000
		}
	}
	JOINT Bag
	{
		OFFSET -13.229000 4.813004 -0.593300
		CHANNELS 3 Xrotation Yrotation Zrotation
		End Site
		{
			OFFSET 0.000000 21.880577 0.000000
		}
	}
	JOINT OccupyGuyFacialAnim_Joint
	{
		OFFSET 1.000000 -70.206398 -1.655000
		CHANNELS 3 Xrotation Yrotation Zrotation
		End Site
		{
			OFFSET 0.000000 21.880577 0.000000
		}
	}
}
MOTION
Frames: 4
Frame Time: 0.033333
0.258502 77.579720 -0.229355 -89.999716 4.961199 2.648384 -0.000000 -0.000000 0.000000 -19.119260 13.058175 14.185471 32.073923 5.009786 -2.574820 7.894278 12.325777 -13.758048 0.000000 -0.000002 0.000002 -0.000000 0.000002 0.000002 -29.832552 -21.579474 -35.754565 48.752719 -7.571786 7.090573 23.374909 -16.571685 30.676091 -0.000000 0.000000 -0.000001 0.000001 -0.000001 -0.000000 4.825642 -0.981513 -2.310271 14.894580 -2.062035 -0.196237 15.119720 -1.644104 -0.608318 13.106001 -0.926953 -0.815720 23.486150 -1.372611 -1.817999 0.000001 -0.000000 -0.000000 0.000001 -0.000000 -0.000000 0.000001 -0.000000 -0.000000 0.000001 -0.000000 -0.000000 0.000001 -0.000000 -0.000000 0.000001 -0.000000 -0.000000 0.000001 -0.000000 -0.000000 0.000001 -0.000000 -0.000000 0.000001 -0.000000 -0.000000 1.977045 -3.292802 -4.992926 -12.637692 -18.918886 -74.997936 -0.000026 -134.512584 -0.000023 -7.622124 -5.755406 21.738105 1.145141 -1.505619 -13.962776 9.008292 35.736448 3.098926 0.000000 -0.000000 -0.000001 4.741928 8.080383 -78.374734 2.450075 4.763908 -54.413720 0.000000 0.000001 0.000002 5.317426 8.168282 -84.083618 4.132154 5.593709 -72.887749 0.000001 0.000000 -0.000003 5.775501 8.197287 -88.583947 5.363558 5.830804 -85.212334 -0.000002 0.000000 0.000003 6.012405 8.198572 -90.946072 4.508790 5.695553 -76.715517 0.000000 -0.000001 0.000003 -0.000000 0.000001 0.000002 1.476749 0.452223 8.808505 -13.826573 14.933242 64.638137 0.000028 133.443373 -0.000014 -11.597747 11.361000 -11.619772 -8.800606 -4.827911 15.947658 8.642798 -34.117034 -3.467728 -0.000000 0.000000 0.000001 3.650877 -6.810766 76.865180 1.407554 -3.337829 45.720470 -0.000000 0.000002 0.000002 4.292864 -6.913217 84.873153 2.592018 -4.175157 63.651605 -0.000000 -0.000001 -0.000001 4.451549 -6.924595 86.831519 3.715543 -4.561200 78.322449 -0.000000 -0.000004 0.000000 4.175286 -6.901361 83.424067 3.915916 -4.597937 80.831648 -0.000001 0.000001 0.000001 0.000000 -0.000000 -0.000001 0.000001 -0.000000 -0.000000 0.000001 -0.000000 -0.000000 0.000001 -0.000000 -0.000000 0.000001 -0.000000 -0.000000 0.000001 -0.000000 -0.000000 0.000001 -0.000000 -0.000000 0.000001 -0.000000 -0.000000 0.000001 -0.000000 -0.000000 0.000001 -0.000000 -0.000000 0.000001 -0.000000 -0.000000 -0.000000 -0.000000 0.000000 -0.000000 -0.000000 0.000000 -0.000000 -0.000000 0.000000 
0.231516 77.565834 -0.455498 -90.929455 4.750477 2.750281 -0.000000 -0.000000 0.000000 -16.326203 13.741563 13.402180 29.135183 4.112565 -1.252485 7.056558 15.042633 -15.252232 -0.000000 0.000004 -0.000000 0.000000 0.000001 -0.000000 -27.668307 -21.782484 -34.228434 46.075053 -6.754821 5.455307 24.098746 -21.967394 30.293798 -0.000000 -0.000002 0.000001 -0.000001 0.000001 -0.000001 4.525604 -0.973342 -2.321131 13.892982 -1.925568 -0.490667 14.156873 -1.610771 -0.875222 12.301073 -0.905104 -0.538595 22.429752 -1.130611 -1.993055 -0.000001 -0.000000 0.000000 -0.000001 -0.000000 0.000000 -0.000001 -0.000000 0.000000 -0.000001 -0.000000 0.000000 -0.000003 -0.000000 0.000000 -0.000001 -0.000000 0.000000 -0.000003 -0.000000 0.000000 -0.000001 -0.000000 0.000000 -0.000001 -0.000000 0.000000 1.965873 -2.793533 -3.655483 -12.322210 -19.408213 -75.518273 0.000029 -132.796417 0.000019 -8.100804 -5.671357 22.259395 1.145138 -1.505623 -13.962751 9.008295 35.736444 3.098924 -0.000000 0.000001 -0.000000 4.741940 8.080391 -78.374720 2.450073 4.763908 -54.413720 0.000000 0.000003 0.000002 5.317418 8.168293 -84.083624 4.132155 5.593711 -72.887776 0.000000 0.000000 0.000001 5.775504 8.197301 -88.583927 5.363561 5.830806 -85.212327 -0.000001 -0.000002 -0.000001 6.012402 8.198571 -90.946066 4.508777 5.695549 -76.715544 -0.000002 -0.000003 0.000002 -0.000001 0.000000 -0.000001 1.498552 0.356002 8.947696 -13.379755 15.460943 64.528246 0.000015 132.235932 -0.000006 -12.011296 10.284572 -11.903363 -8.800605 -4.827913 15.947672 8.642799 -34.117031 -3.467737 0.000000 -0.000001 0.000001 3.650868 -6.810787 76.865159 1.407553 -3.337831 45.720470 0.000003 0.000001 -0.000001 4.292864 -6.913222 84.873146 2.592008 -4.175154 63.651605 -0.000001 -0.000000 -0.000003 4.451540 -6.924607 86.831491 3.715545 -4.561200 78.322408 -0.000000 -0.000004 0.000002 4.175289 -6.901356 83.424047 3.915911 -4.597940 80.831655 -0.000002 0.000001 -0.000001 0.000000 -0.000003 -0.000001 0.000001 0.000000 0.000000 -0.000001 0.000000 0.000000 0.000001 0.000000 0.000000 0.000001 0.000000 0.000000 0.000001 0.000000 0.000000 -0.000001 0.000000 0.000000 0.000001 0.000000 0.000000 0.000001 0.000000 0.000000 0.000001 0.000000 0.000000 -0.000001 0.000000 0.000000 -0.000000 -0.000000 0.000000 -0.000000 -0.000000 0.000000 -0.000000 -0.000000 0.000000 
0.207309 77.559853 -0.697838 -91.823513 4.287370 2.660365 0.000000 -0.000000 0.000000 -13.238163 14.440825 12.686221 25.619589 0.773940 0.105194 7.119983 20.243352 -17.313273 -0.000000 0.000001 -0.000000 0.000000 0.000000 0.000000 -25.316856 -22.074548 -32.280768 42.975701 -5.144091 3.649799 24.634035 -27.309514 29.570290 0.000000 -0.000000 -0.000000 -0.000000 0.000000 -0.000000 4.229268 -0.966823 -2.322278 12.877732 -1.802739 -0.821512 13.200052 -1.579060 -1.175992 11.385693 -0.888095 -0.199202 21.170311 -0.847189 -2.154643 -0.000001 -0.000000 -0.000000 -0.000001 -0.000000 -0.000000 -0.000001 -0.000000 -0.000000 -0.000001 -0.000000 0.000000 -0.000001 -0.000000 0.000000 -0.000001 -0.000000 0.000000 -0.000001 -0.000000 0.000000 -0.000001 -0.000000 -0.000000 -0.000001 -0.000000 -0.000000 1.931827 -2.230278 -2.235891 -11.780049 -20.027231 -76.138680 0.000016 -131.099115 0.000020 -8.159452 -5.714536 22.870701 1.145137 -1.505624 -13.962744 9.008292 35.736444 3.098927 0.000000 0.000001 -0.000001 4.741935 8.080387 -78.374727 2.450071 4.763907 -54.413723 0.000002 0.000001 -0.000002 5.317419 8.168282 -84.083611 4.132154 5.593707 -72.887763 0.000000 -0.000001 -0.000003 5.775501 8.197300 -88.583934 5.363555 5.830801 -85.212334 -0.000002 0.000001 -0.000002 6.012408 8.198577 -90.946072 4.508779 5.695546 -76.715551 -0.000001 -0.000001 -0.000001 -0.000001 -0.000001 0.000003 1.518792 0.299820 9.185094 -12.751144 16.003599 64.374540 -0.000002 130.705054 -0.000005 -12.782343 9.621226 -11.963416 -8.800599 -4.827912 15.947655 8.642797 -34.117027 -3.467730 0.000000 0.000000 0.000001 3.650880 -6.810781 76.865139 1.407554 -3.337831 45.720470 0.000002 0.000002 0.000002 4.292870 -6.913232 84.873133 2.592022 -4.175158 63.651571 -0.000000 -0.000003 -0.000003 4.451551 -6.924599 86.831485 3.715546 -4.561198 78.322442 0.000002 -0.000001 -0.000000 4.175289 -6.901359 83.424047 3.915915 -4.597944 80.831655 -0.000002 0.000001 -0.000001 0.000001 0.000001 0.000001 0.000001 0.000000 -0.000000 0.000001 0.000000 -0.000000 0.000001 0.000000 0.000000 0.000001 0.000000 0.000000 0.000001 0.000000 -0.000000 0.000001 0.000000 -0.000000 0.000001 0.000000 0.000000 0.000001 0.000000 0.000000 0.000001 0.000000 -0.000000 0.000001 0.000000 -0.000000 0.000000 -0.000000 0.000000 0.000000 -0.000000 0.000000 0.000000 -0.000000 0.000000 
0.180483 77.561707 -0.940536 -92.642794 3.323756 2.312294 0.000000 0.000000 0.000000 -9.967725 15.104265 12.375358 21.889088 -2.866873 0.941360 8.123776 25.989179 -19.172918 -0.000001 0.000001 -0.000001 -0.000001 -0.000000 -0.000001 -22.872564 -22.308841 -29.954003 39.691828 -3.968480 1.802836 25.319967 -29.923663 28.977655 -0.000003 -0.000000 -0.000000 0.000002 -0.000002 -0.000002 3.961284 -0.962203 -2.334746 11.841070 -1.714995 -1.170630 12.251063 -1.553496 -1.494526 10.340535 -0.878348 0.183482 19.779984 -0.554316 -2.285275 0.000000 -0.000000 0.000000 0.000000 -0.000000 0.000000 0.000000 -0.000000 0.000000 0.000000 -0.000000 -0.000000 0.000002 -0.000000 0.000000 0.000000 -0.000000 -0.000000 0.000002 -0.000000 0.000000 0.000000 -0.000000 0.000000 0.000000 -0.000000 0.000000 1.861119 -1.679871 -0.787488 -10.776556 -20.658133 -76.697089 -0.000016 -129.709295 -0.000011 -7.619544 -5.822088 23.829043 1.145141 -1.505627 -13.962750 9.008293 35.736451 3.098925 0.000000 0.000001 -0.000001 4.741937 8.080391 -78.374734 2.450076 4.763910 -54.413723 -0.000003 0.000002 0.000000 5.317424 8.168283 -84.083611 4.132143 5.593721 -72.887756 -0.000001 0.000001 -0.000004 5.775505 8.197298 -88.583906 5.363559 5.830805 -85.212327 -0.000001 0.000001 -0.000001 6.012405 8.198571 -90.946066 4.508788 5.695544 -76.715544 0.000001 -0.000000 0.000003 0.000000 -0.000003 -0.000002 1.533507 0.280988 9.509316 -12.090472 16.665522 64.314120 0.000012 128.842025 -0.000010 -13.996189 9.300918 -11.568789 -8.800611 -4.827899 15.947653 8.642798 -34.117034 -3.467735 -0.000001 -0.000002 -0.000004 3.650874 -6.810774 76.865173 1.407550 -3.337830 45.720470 -0.000001 -0.000001 0.000002 4.292864 -6.913221 84.873153 2.592013 -4.175150 63.651626 -0.000001 -0.000002 -0.000001 4.451536 -6.924600 86.831519 3.715543 -4.561192 78.322442 -0.000001 0.000000 0.000000 4.175283 -6.901359 83.424053 3.915925 -4.597939 80.831676 0.000001 0.000003 -0.000001 -0.000000 0.000003 -0.000001 -0.000002 0.000000 0.000000 0.000000 0.000000 0.000001 -0.000002 0.000000 0.000000 -0.000002 0.000000 0.000000 -0.000002 0.000000 0.000000 0.000000 0.000000 0.000001 -0.000002 0.000000 0.000000 -0.000002 0.000000 0.000000 -0.000002 0.000000 0.000000 0.000000 0.000000 0.000001 0.000000 0.000000 0.000000 0.000000 0.000000 0.000000 0.000000 0.000000 0.000000 
